# xmcd
#
# Track frame offsets:
#	150
#	5771
#	19443
#	32378
#	44525
#	58272
#	68260
#	83733
#	94408
#	104717
#	116344
#	129637
#	140741
#	154424
#	162475
#	177313
#	193202
#	203940
#	213133
#	221288
#
# Disc length: 3076 seconds
#
# Revision: 0
# Processed by: cddbd v1.5.2PL0 Copyright (c) Steve Scherf et al.
# Submitted via: EasyCDDAExtractor 12.0.4.1
#
DISCID=2a0c0214
DTITLE=New Kids On The Pops - V.A  - New Kids On The Pops
DYEAR=2009
DGENRE=Pop
TTITLE0=How Much Is That Doggy In The Window?
TTITLE1=Happy Together
TTITLE2=Oh, Pretty Woman
TTITLE3=I Walk The Line
TTITLE4=Ob-La-Di, Ob-La-Da
TTITLE5=Rock Around The Clock
TTITLE6=Tie A Yellow Ribbon Round The Ole Oak Tree
TTITLE7=The Loco-Motion
TTITLE8=Da Doo Ron Ron
TTITLE9=Jambalaya (On The Bayou)
TTITLE10=We Are The Champions
TTITLE11=It's My Party
TTITLE12=Take Me Home, Country Roads
TTITLE13=You Are My Sunshine
TTITLE14=All Star
TTITLE15=Celebration
TTITLE16=Bye Bye Love
TTITLE17=Don't Be Cruel
TTITLE18=The Yellow Rose Of Texas
TTITLE19=We Will Rock You
EXTD=
EXTT0=
EXTT1=
EXTT2=
EXTT3=
EXTT4=
EXTT5=
EXTT6=
EXTT7=
EXTT8=
EXTT9=
EXTT10=
EXTT11=
EXTT12=
EXTT13=
EXTT14=
EXTT15=
EXTT16=
EXTT17=
EXTT18=
EXTT19=
PLAYORDER=
